<?xml version="1.0" standalone="no"?><!DOCTYPE svg PUBLIC "-//W3C//DTD SVG 1.1//EN" "http://www.w3.org/Graphics/SVG/1.1/DTD/svg11.dtd"><svg t="1604651895388" class="icon" viewBox="0 0 1024 1024" version="1.1" xmlns="http://www.w3.org/2000/svg" p-id="4514" xmlns:xlink="http://www.w3.org/1999/xlink" width="28" height="28"><defs><style type="text/css"></style></defs><path d="M153.6 791.893333l384 73.386667V158.72L153.6 233.813333v558.08z m93.866667-414.72l56.32-3.413333 37.546666 105.813333 42.666667-110.933333 58.026667-3.413333-69.973334 146.773333 71.68 148.48-63.146666-3.413333c-1.706667-5.12-8.533333-22.186667-20.48-56.32-6.826667-18.773333-13.653333-37.546667-22.186667-58.026667l-40.96 109.226667-54.613333-3.413334 64.853333-136.533333-59.733333-134.826667z m392.533333 196.266667h20.48v-3.413333h104.106667v3.413333h40.96V252.586667c0-3.413333-1.706667-6.826667-3.413334-6.826667-3.413333 0-5.12-1.706667-8.533333-1.706667H575.146667V290.133333h64.853333v69.973334h-64.853333v22.186666h64.853333v69.973334h-64.853333v23.893333h64.853333v66.56h-64.853333v27.306667h64.853333v3.413333zM660.48 290.133333h104.106667v69.973334h-104.106667V290.133333z m0 92.16h104.106667v69.973334h-104.106667v-69.973334z m0 93.866667h104.106667v66.56h-104.106667v-66.56z m0 0" fill="#606060" p-id="4515"></path><path d="M730.453333 609.28l-27.306666 40.96 63.146666 49.493333H558.08v51.2h216.746667l-68.266667 73.386667 34.133333 37.546667 129.706667-141.653334z" fill="#CCCCCC" p-id="4516"></path></svg>