<?xml version="1.0" standalone="no"?><!DOCTYPE svg PUBLIC "-//W3C//DTD SVG 1.1//EN" "http://www.w3.org/Graphics/SVG/1.1/DTD/svg11.dtd"><svg t="1604651821357" class="icon" viewBox="0 0 1024 1024" version="1.1" xmlns="http://www.w3.org/2000/svg" p-id="4372" xmlns:xlink="http://www.w3.org/1999/xlink" width="28" height="28"><defs><style type="text/css"></style></defs><path d="M853.333333 503.466667h-68.266666v-170.666667c0-5.12-1.706667-8.533333-5.12-11.946667l-5.12-5.12c-5.12-3.413333-8.533333-8.533333-15.36-13.653333-15.36-13.653333-30.72-27.306667-44.373334-40.96l-3.413333-3.413333c-18.773333-17.066667-35.84-32.426667-47.786667-42.666667-6.826667-5.12-11.946667-10.24-17.066666-13.653333-3.413333-1.706667-5.12-3.413333-6.826667-5.12-3.413333-1.706667-5.12-1.706667-8.533333-1.706667-10.24 0-17.066667 8.533333-17.066667 17.066667v153.6h136.533333v136.533333H273.066667v-273.066667h290.133333c10.24 0 17.066667-6.826667 17.066667-17.066666s-6.826667-17.066667-17.066667-17.066667H238.933333v307.2h-68.266666v290.133333h68.266666c0 47.786667 37.546667 85.333333 85.333334 85.333334h460.8v-85.333334h68.266666V503.466667z m-165.546666-220.16l3.413333 3.413333c13.653333 13.653333 29.013333 27.306667 44.373333 40.96 1.706667 1.706667 5.12 3.413333 6.826667 6.826667H648.533333v-85.333334c10.24 8.533333 23.893333 18.773333 39.253334 34.133334zM750.933333 844.8H324.266667c-29.013333 0-51.2-22.186667-51.2-51.2h477.866666v51.2z" fill="#606060" p-id="4373"></path><path d="M368.64 563.2v25.6H290.133333v30.72h71.68v25.6H290.133333V682.666667h81.92v25.6h-110.933333V563.2h107.52zM453.973333 653.653333l37.546667 54.613334h-35.84l-18.773333-32.426667-18.773334 32.426667h-34.133333l37.546667-54.613334-35.84-52.906666h34.133333l18.773333 32.426666 18.773334-32.426666h34.133333l-37.546667 52.906666zM571.733333 669.013333h29.013334c0 8.533333-3.413333 17.066667-10.24 25.6-8.533333 11.946667-22.186667 17.066667-39.253334 17.066667-18.773333 0-32.426667-6.826667-40.96-18.773333-6.826667-8.533333-10.24-20.48-10.24-35.84 0-18.773333 3.413333-32.426667 11.946667-42.666667 8.533333-11.946667 22.186667-17.066667 39.253333-17.066667 11.946667 0 22.186667 3.413333 30.72 8.533334 11.946667 6.826667 17.066667 18.773333 17.066667 34.133333h-29.013333c-1.706667-6.826667-3.413333-10.24-6.826667-13.653333-3.413333-1.706667-6.826667-3.413333-11.946667-3.413334-8.533333 0-13.653333 3.413333-18.773333 10.24-3.413333 5.12-5.12 11.946667-5.12 20.48 0 13.653333 1.706667 22.186667 5.12 27.306667s8.533333 8.533333 17.066667 8.533333c6.826667 0 11.946667-1.706667 15.36-6.826666 5.12-5.12 6.826667-10.24 6.826666-13.653334zM684.373333 677.546667h29.013334c-3.413333 11.946667-10.24 20.48-18.773334 27.306666-8.533333 5.12-17.066667 6.826667-27.306666 6.826667-17.066667 0-29.013333-5.12-39.253334-13.653333-10.24-10.24-15.36-25.6-15.36-46.08 0-11.946667 3.413333-22.186667 8.533334-32.426667 8.533333-15.36 23.893333-22.186667 44.373333-22.186667 13.653333 0 25.6 3.413333 34.133333 11.946667 11.946667 10.24 17.066667 25.6 17.066667 47.786667v5.12h-75.093333c1.706667 10.24 3.413333 17.066667 6.826666 20.48 3.413333 3.413333 10.24 6.826667 18.773334 6.826666 3.413333 0 8.533333-1.706667 11.946666-3.413333s5.12-5.12 5.12-8.533333z m-42.666666-34.133334h44.373333c0-8.533333-3.413333-13.653333-8.533333-18.773333-3.413333-3.413333-8.533333-5.12-13.653334-5.12-6.826667 0-11.946667 1.706667-15.36 5.12-3.413333 6.826667-6.826667 11.946667-6.826666 18.773333zM762.88 563.2v146.773333H733.866667V563.2h29.013333z" fill="#FFFFFF" p-id="4374"></path><path d="M170.666667 315.733333l189.44-170.666666v97.28c34.133333 0 64.853333 5.12 90.453333 13.653333 27.306667 8.533333 51.2 23.893333 69.973333 42.666667 18.773333 20.48 34.133333 42.666667 44.373334 66.56 11.946667 25.6 20.48 56.32 29.013333 93.866666v3.413334c0 6.826667-3.413333 13.653333-11.946667 15.36-6.826667 1.706667-11.946667-1.706667-17.066666-6.826667-10.24-13.653333-35.84-29.013333-54.613334-40.96-5.12-3.413333-8.533333-5.12-11.946666-6.826667-17.066667-11.946667-35.84-18.773333-56.32-23.893333-15.36-3.413333-18.773333-3.413333-25.6-5.12h-10.24C392.533333 392.533333 375.466667 392.533333 358.4 392.533333v95.573334L170.666667 315.733333z m0 0" fill="#CCCCCC" p-id="4375"></path></svg>