<?xml version="1.0" standalone="no"?><!DOCTYPE svg PUBLIC "-//W3C//DTD SVG 1.1//EN" "http://www.w3.org/Graphics/SVG/1.1/DTD/svg11.dtd"><svg t="1604651052237" class="icon" viewBox="0 0 1024 1024" version="1.1" xmlns="http://www.w3.org/2000/svg" p-id="3526" xmlns:xlink="http://www.w3.org/1999/xlink" width="28" height="28"><defs><style type="text/css"></style></defs><path d="M189.44 779.946667l402.773333 71.68v-682.666667l-402.773333 73.386667z m98.986667-399.36l59.733333-3.413334 37.546667 100.693334h1.706666l44.373334-105.813334 59.733333-3.413333-71.68 139.946667 75.093333 145.066666-66.56-5.12c0-3.413333-8.533333-22.186667-20.48-52.906666l-23.893333-56.32-42.666667 105.813333-58.026666-5.12 68.266666-129.706667z m409.6 189.44h22.186666v-3.413334h110.933334v3.413334h40.96V261.12c0-5.12 0-6.826667-3.413334-6.826667H631.466667v42.666667h66.56v68.266667H631.466667v22.186666h66.56v68.266667H631.466667V477.866667h66.56v64.853333H631.466667v25.6h66.56v3.413333z m22.186666-274.773334h110.933334v68.266667h-110.933334z m0 90.453334h110.933334v68.266666h-110.933334z m0 90.453333h110.933334v64.853333h-110.933334z m0 0" fill="#606060" p-id="3527"></path><path d="M923.306667 682.666667l-187.733334 168.96v-95.573334a348.16 348.16 0 0 1-90.453333-13.653333 172.373333 172.373333 0 0 1-71.68-42.666667 252.586667 252.586667 0 0 1-44.373333-66.56 479.573333 479.573333 0 0 1-27.306667-93.866666 13.653333 13.653333 0 0 1 10.24-13.653334 17.066667 17.066667 0 0 1 17.066667 5.12 269.653333 269.653333 0 0 0 52.906666 40.96l11.946667 6.826667a168.96 168.96 0 0 0 56.32 25.6l25.6 3.413333h8.533333l49.493334 3.413334V512l189.44 170.666667z m0 0" fill="#CCCCCC" p-id="3528"></path></svg>