<?xml version="1.0" standalone="no"?><!DOCTYPE svg PUBLIC "-//W3C//DTD SVG 1.1//EN" "http://www.w3.org/Graphics/SVG/1.1/DTD/svg11.dtd"><svg t="1604651733540" class="icon" viewBox="0 0 1024 1024" version="1.1" xmlns="http://www.w3.org/2000/svg" p-id="4088" xmlns:xlink="http://www.w3.org/1999/xlink" width="28" height="28"><defs><style type="text/css"></style></defs><path d="M778.24 317.44c-5.12-3.413333-8.533333-8.533333-15.36-13.653333-15.36-13.653333-30.72-27.306667-44.373333-40.96l-3.413334-3.413334c-18.773333-17.066667-35.84-32.426667-47.786666-42.666666-6.826667-5.12-11.946667-10.24-17.066667-13.653334-3.413333-1.706667-5.12-3.413333-6.826667-5.12-3.413333-1.706667-5.12-1.706667-8.533333-1.706666-10.24 0-17.066667 8.533333-17.066667 17.066666v153.6h153.6l-17.066666-17.066666v512l17.066666-17.066667h-443.733333c-29.013333 0-51.2-22.186667-51.2-51.2v-580.266667l-17.066667 17.066667h307.2c10.24 0 17.066667-6.826667 17.066667-17.066667s-6.826667-17.066667-17.066667-17.066666h-324.266666v597.333333c0 47.786667 37.546667 85.333333 85.333333 85.333333h460.8v-546.133333h-153.6l17.066667 17.066667v-136.533334c0 8.533333-6.826667 17.066667-17.066667 17.066667-3.413333 0-5.12 0-6.826667-1.706667l1.706667 1.706667c3.413333 1.706667 8.533333 6.826667 13.653333 11.946667 11.946667 10.24 27.306667 23.893333 46.08 40.96l3.413334 3.413333c13.653333 13.653333 29.013333 27.306667 44.373333 40.96 5.12 5.12 10.24 8.533333 15.36 13.653333 3.413333 1.706667 5.12 3.413333 5.12 5.12 6.826667 6.826667 17.066667 6.826667 23.893333 0 6.826667-6.826667 6.826667-17.066667 0-23.893333 0-1.706667-1.706667-3.413333-3.413333-5.12z m-534.186667 187.733333h-68.266666v290.133334h682.666666v-290.133334h-614.4z m69.973334 167.253334v71.68h-34.133334V549.546667h75.093334c22.186667 0 39.253333 5.12 51.2 17.066666 11.946667 11.946667 18.773333 25.6 18.773333 44.373334s-6.826667 34.133333-18.773333 44.373333c-11.946667 10.24-30.72 15.36-52.906667 15.36h-39.253333z m0-27.306667h40.96c11.946667 0 20.48-3.413333 27.306666-8.533333 6.826667-5.12 10.24-13.653333 10.24-23.893334 0-10.24-3.413333-18.773333-10.24-25.6-6.826667-6.826667-15.36-10.24-25.6-10.24h-40.96v68.266667z m141.653333 98.986667V549.546667H512c17.066667 0 32.426667 3.413333 46.08 11.946666 13.653333 6.826667 23.893333 18.773333 30.72 32.426667 6.826667 13.653333 10.24 30.72 10.24 47.786667v10.24c0 18.773333-3.413333 34.133333-10.24 47.786666-6.826667 13.653333-17.066667 23.893333-30.72 32.426667-13.653333 6.826667-29.013333 11.946667-46.08 11.946667h-56.32z m32.426667-167.253334V716.8h22.186666c17.066667 0 30.72-5.12 40.96-17.066667 10.24-10.24 13.653333-27.306667 13.653334-47.786666v-10.24c0-20.48-5.12-37.546667-13.653334-47.786667-8.533333-11.946667-22.186667-17.066667-39.253333-17.066667h-23.893333z m257.706666 85.333334h-78.506666v81.92h-34.133334V549.546667h122.88v27.306666H665.6v58.026667h78.506667v27.306667z m0 0" fill="#606060" p-id="4089"></path><path d="M165.546667 314.026667l189.44-170.666667v97.28c34.133333 0 64.853333 5.12 90.453333 13.653333 27.306667 8.533333 51.2 23.893333 69.973333 42.666667 18.773333 20.48 34.133333 42.666667 44.373334 66.56 11.946667 25.6 20.48 56.32 29.013333 93.866667v3.413333c0 6.826667-3.413333 13.653333-11.946667 15.36-6.826667 1.706667-11.946667-1.706667-17.066666-6.826667-10.24-13.653333-35.84-29.013333-54.613334-40.96-5.12-3.413333-8.533333-5.12-11.946666-6.826666-17.066667-11.946667-35.84-18.773333-56.32-23.893334-15.36-3.413333-18.773333-3.413333-25.6-5.12h-10.24c-13.653333-1.706667-30.72-1.706667-47.786667-1.706666v95.573333l-187.733333-172.373333z m0 0" fill="#CCCCCC" p-id="4090"></path></svg>