<?xml version="1.0" standalone="no"?><!DOCTYPE svg PUBLIC "-//W3C//DTD SVG 1.1//EN" "http://www.w3.org/Graphics/SVG/1.1/DTD/svg11.dtd"><svg t="1604651652629" class="icon" viewBox="0 0 1024 1024" version="1.1" xmlns="http://www.w3.org/2000/svg" p-id="3807" xmlns:xlink="http://www.w3.org/1999/xlink" width="28" height="28"><defs><style type="text/css"></style></defs><path d="M768 319.146667h-42.666667V170.666667h-426.666666v148.48H256a85.333333 85.333333 0 0 0-85.333333 85.333333V682.666667h128v170.666666h426.666666V682.666667H853.333333V406.186667a85.333333 85.333333 0 0 0-85.333333-87.04z m-426.666667-105.813334h341.333334v105.813334H341.333333z m341.333334 597.333334H341.333333V619.52h341.333334z m128-170.666667h-85.333334v-63.146667h-426.666666v63.146667h-85.333334V406.186667a42.666667 42.666667 0 0 1 42.666667-42.666667h512a42.666667 42.666667 0 0 1 42.666667 42.666667zM512 426.666667H320.853333a22.186667 22.186667 0 0 0-1.706666 42.666666h191.146666a20.48 20.48 0 0 0 22.186667-20.48A20.48 20.48 0 0 0 512 426.666667z m0 0" fill="#606060" p-id="3808"></path><path d="M390.826667 721.92v39.253333h-22.186667v-109.226666h49.493333a34.133333 34.133333 0 0 1 23.893334 8.533333 34.133333 34.133333 0 0 1 10.24 25.6 47.786667 47.786667 0 0 1-6.826667 22.186667 34.133333 34.133333 0 0 1-29.013333 13.653333z m0-18.773333h20.48a22.186667 22.186667 0 0 0 15.36-6.826667 22.186667 22.186667 0 0 0 1.706666-10.24 13.653333 13.653333 0 0 0-5.12-11.946667 23.893333 23.893333 0 0 0-15.36-3.413333h-17.066666zM469.333333 761.173333v-109.226666h47.786667a37.546667 37.546667 0 0 1 35.84 18.773333 61.44 61.44 0 0 1 8.533333 32.426667 81.92 81.92 0 0 1-8.533333 37.546666 40.96 40.96 0 0 1-37.546667 20.48z m22.186667-90.453333v71.68h22.186667a20.48 20.48 0 0 0 18.773333-11.946667 56.32 56.32 0 0 0 5.12-25.6c0-13.653333-1.706667-23.893333-8.533333-29.013333a20.48 20.48 0 0 0-15.36-5.12zM600.746667 715.093333v46.08h-22.186667v-109.226666h76.8v18.773333h-54.613333v25.6H648.533333v18.773333z" fill="#606060" p-id="3809"></path></svg>