<?xml version="1.0" standalone="no"?><!DOCTYPE svg PUBLIC "-//W3C//DTD SVG 1.1//EN" "http://www.w3.org/Graphics/SVG/1.1/DTD/svg11.dtd"><svg t="1604651680024" class="icon" viewBox="0 0 1024 1024" version="1.1" xmlns="http://www.w3.org/2000/svg" p-id="3948" xmlns:xlink="http://www.w3.org/1999/xlink" width="28" height="28"><defs><style type="text/css"></style></defs><path d="M768 319.146667h-42.666667V170.666667h-426.666666v148.48H256a85.333333 85.333333 0 0 0-85.333333 85.333333V682.666667h128v170.666666h426.666666V682.666667H853.333333V406.186667a85.333333 85.333333 0 0 0-85.333333-87.04z m-426.666667-105.813334h341.333334v105.813334H341.333333z m341.333334 597.333334H341.333333V619.52h341.333334z m128-170.666667h-85.333334v-63.146667h-426.666666v63.146667h-85.333334V406.186667a42.666667 42.666667 0 0 1 42.666667-42.666667h512a42.666667 42.666667 0 0 1 42.666667 42.666667zM512 426.666667H320.853333a22.186667 22.186667 0 0 0-1.706666 42.666666h191.146666a20.48 20.48 0 0 0 22.186667-20.48A20.48 20.48 0 0 0 512 426.666667z m95.573333 225.28H416.426667a23.893333 23.893333 0 0 0-22.186667 22.186666 20.48 20.48 0 0 0 22.186667 20.48h191.146666a20.48 20.48 0 0 0 22.186667-20.48 22.186667 22.186667 0 0 0-22.186667-22.186666z m0 73.386666H416.426667a20.48 20.48 0 0 0-22.186667 20.48 22.186667 22.186667 0 0 0 22.186667 22.186667h191.146666a22.186667 22.186667 0 0 0 22.186667-20.48 22.186667 22.186667 0 0 0-22.186667-22.186667zM512 426.666667" fill="#606060" p-id="3949"></path></svg>