<?xml version="1.0" standalone="no"?><!DOCTYPE svg PUBLIC "-//W3C//DTD SVG 1.1//EN" "http://www.w3.org/Graphics/SVG/1.1/DTD/svg11.dtd"><svg t="1604371854889" class="icon" viewBox="0 0 1024 1024" version="1.1" xmlns="http://www.w3.org/2000/svg" p-id="2892" xmlns:xlink="http://www.w3.org/1999/xlink" width="28" height="28"><defs><style type="text/css"></style></defs><path d="M896 713.386667l-69.973333-134.826667h-1.706667l-3.413333-5.12h-23.893334l-136.533333 51.2a23.893333 23.893333 0 0 0-13.653333 30.72 22.186667 22.186667 0 0 0 30.72 15.36l88.746666-34.133333a279.893333 279.893333 0 0 1-259.413333 167.253333 283.306667 283.306667 0 0 1-274.773333-218.453333 25.6 25.6 0 0 0-29.013334-17.066667 23.893333 23.893333 0 0 0-17.066666 29.013333 332.8 332.8 0 0 0 320.853333 256 327.68 327.68 0 0 0 302.08-201.386666l44.373333 83.626666a22.186667 22.186667 0 0 0 22.186667 13.653334h10.24a25.6 25.6 0 0 0 10.24-34.133334zM191.146667 430.08h1.706666c0 3.413333 1.706667 5.12 3.413334 5.12a1.706667 1.706667 0 0 0 1.706666 1.706667l6.826667 5.12h13.653333l138.24-39.253334a23.893333 23.893333 0 1 0-11.946666-46.08l-92.16 25.6a281.6 281.6 0 0 1 525.653333 42.666667 20.48 20.48 0 0 0 29.013333 15.36 23.893333 23.893333 0 0 0 17.066667-29.013333 329.386667 329.386667 0 0 0-614.4-54.613334L170.666667 273.066667a23.893333 23.893333 0 0 0-32.426667-10.24 22.186667 22.186667 0 0 0-10.24 32.426666l63.146667 133.12z m0 0" p-id="2893"></path></svg>