<?xml version="1.0" standalone="no"?><!DOCTYPE svg PUBLIC "-//W3C//DTD SVG 1.1//EN" "http://www.w3.org/Graphics/SVG/1.1/DTD/svg11.dtd"><svg t="1604651786129" class="icon" viewBox="0 0 1024 1024" version="1.1" xmlns="http://www.w3.org/2000/svg" p-id="4229" xmlns:xlink="http://www.w3.org/1999/xlink" width="28" height="28"><defs><style type="text/css"></style></defs><path d="M783.36 314.026667c-5.12-3.413333-8.533333-8.533333-15.36-13.653334-15.36-13.653333-30.72-27.306667-44.373333-40.96l-3.413334-3.413333c-18.773333-17.066667-35.84-32.426667-47.786666-42.666667-6.826667-5.12-11.946667-10.24-17.066667-13.653333-3.413333-1.706667-5.12-3.413333-6.826667-5.12-3.413333-1.706667-5.12-1.706667-8.533333-1.706667-10.24 0-17.066667 8.533333-17.066667 17.066667v153.6h153.6l-17.066666-17.066667v512l17.066666-17.066666h-443.733333c-29.013333 0-51.2-22.186667-51.2-51.2v-580.266667l-17.066667 17.066667h307.2c10.24 0 17.066667-6.826667 17.066667-17.066667s-6.826667-17.066667-17.066667-17.066667h-324.266666v597.333334c0 47.786667 37.546667 85.333333 85.333333 85.333333h460.8v-546.133333h-153.6l17.066667 17.066666v-136.533333c0 8.533333-6.826667 17.066667-17.066667 17.066667-3.413333 0-5.12 0-6.826667-1.706667l1.706667 1.706667c3.413333 1.706667 8.533333 6.826667 13.653333 11.946666 11.946667 10.24 27.306667 23.893333 46.08 40.96l3.413334 3.413334c13.653333 13.653333 29.013333 27.306667 44.373333 40.96 5.12 5.12 10.24 8.533333 15.36 13.653333 3.413333 1.706667 5.12 3.413333 5.12 5.12 6.826667 6.826667 17.066667 6.826667 23.893333 0 6.826667-6.826667 6.826667-17.066667 0-23.893333 1.706667-1.706667-1.706667-3.413333-3.413333-5.12z m-534.186667 187.733333h-68.266666v290.133333h682.666666v-290.133333h-614.4z m69.973334 167.253333v71.68h-34.133334V546.133333h75.093334c22.186667 0 39.253333 5.12 51.2 17.066667 11.946667 11.946667 18.773333 25.6 18.773333 44.373333s-6.826667 34.133333-18.773333 44.373334c-11.946667 10.24-30.72 15.36-52.906667 15.36h-39.253333z m0-27.306666h40.96c11.946667 0 20.48-3.413333 27.306666-8.533334 6.826667-5.12 10.24-13.653333 10.24-23.893333 0-10.24-3.413333-18.773333-10.24-25.6-6.826667-6.826667-15.36-10.24-25.6-10.24h-40.96v68.266667z m141.653333 98.986666V546.133333h58.026667c17.066667 0 32.426667 3.413333 46.08 11.946667 13.653333 6.826667 23.893333 18.773333 30.72 32.426667 6.826667 13.653333 10.24 30.72 10.24 47.786666v10.24c0 18.773333-3.413333 34.133333-10.24 47.786667-6.826667 13.653333-17.066667 23.893333-30.72 32.426667-13.653333 6.826667-29.013333 11.946667-46.08 11.946666H460.8z m32.426667-167.253333v139.946667h22.186666c17.066667 0 30.72-5.12 40.96-17.066667 10.24-10.24 13.653333-27.306667 13.653334-47.786667v-10.24c0-20.48-5.12-37.546667-13.653334-47.786666-8.533333-11.946667-22.186667-17.066667-39.253333-17.066667h-23.893333z m257.706666 85.333333h-78.506666v81.92h-34.133334V546.133333h122.88v27.306667h-90.453333V631.466667H750.933333v27.306666z m0 0" fill="#606060" p-id="4230"></path><path d="M211.626667 535.893333h583.68v245.76H211.626667z" fill="#606060" p-id="4231"></path><path d="M278.186667 711.68L240.64 580.266667h29.013333c6.826667 25.6 10.24 46.08 13.653334 58.026666 3.413333 15.36 5.12 27.306667 6.826666 37.546667l18.773334-97.28h29.013333c6.826667 34.133333 11.946667 56.32 15.36 68.266667 1.706667 8.533333 3.413333 17.066667 5.12 27.306666 3.413333-17.066667 6.826667-29.013333 8.533333-37.546666 0 0 5.12-20.48 13.653334-59.733334H409.6l-37.546667 131.413334h-27.306666c-6.826667-29.013333-10.24-51.2-13.653334-66.56-1.706667-11.946667-5.12-23.893333-6.826666-37.546667 0 10.24-1.706667 18.773333-3.413334 27.306667-1.706667 11.946667-3.413333 22.186667-5.12 29.013333l-10.24 51.2h-27.306666zM421.546667 645.12c0-18.773333 3.413333-34.133333 11.946666-46.08 6.826667-8.533333 15.36-15.36 27.306667-20.48 8.533333-3.413333 15.36-3.413333 23.893333-3.413333 8.533333 0 17.066667 1.706667 23.893334 3.413333 11.946667 3.413333 20.48 10.24 27.306666 20.48 8.533333 11.946667 11.946667 27.306667 11.946667 46.08s-3.413333 34.133333-11.946667 46.08c-6.826667 8.533333-15.36 15.36-27.306666 20.48-8.533333 3.413333-15.36 3.413333-23.893334 3.413333-8.533333 0-17.066667-1.706667-23.893333-3.413333-11.946667-3.413333-20.48-10.24-27.306667-20.48-8.533333-11.946667-11.946667-27.306667-11.946666-46.08z m27.306666 0c0 17.066667 3.413333 29.013333 11.946667 37.546667 6.826667 6.826667 13.653333 8.533333 23.893333 8.533333 8.533333 0 17.066667-3.413333 23.893334-8.533333 8.533333-8.533333 11.946667-20.48 11.946666-37.546667 0-17.066667-3.413333-29.013333-11.946666-37.546667-6.826667-6.826667-13.653333-8.533333-23.893334-8.533333-8.533333 0-17.066667 3.413333-23.893333 8.533333-8.533333 8.533333-11.946667 20.48-11.946667 37.546667zM570.026667 711.68V580.266667h66.56c11.946667 0 22.186667 3.413333 29.013333 8.533333 8.533333 6.826667 13.653333 17.066667 13.653333 29.013333 0 6.826667-1.706667 13.653333-5.12 18.773334-3.413333 5.12-8.533333 10.24-15.36 11.946666 6.826667 3.413333 10.24 5.12 11.946667 8.533334 3.413333 5.12 3.413333 11.946667 3.413333 23.893333v20.48c0 3.413333 1.706667 5.12 5.12 6.826667v3.413333H648.533333c1.706667-3.413333 0-6.826667 0-11.946667v-15.36c0-10.24-1.706667-17.066667-3.413333-18.773333-3.413333-3.413333-8.533333-5.12-18.773333-5.12H597.333333v51.2h-27.306666z m27.306666-75.093333h32.426667c6.826667 0 11.946667-1.706667 17.066667-3.413334 3.413333-3.413333 5.12-6.826667 5.12-13.653333 0-5.12-1.706667-8.533333-3.413334-11.946667-3.413333-3.413333-8.533333-6.826667-15.36-6.826666h-34.133333v35.84zM703.146667 711.68V580.266667h58.026666c20.48 0 34.133333 6.826667 44.373334 22.186666 6.826667 10.24 10.24 23.893333 10.24 40.96s-3.413333 32.426667-10.24 44.373334c-10.24 15.36-23.893333 23.893333-44.373334 23.893333h-58.026666z m27.306666-109.226667v87.04h27.306667c10.24 0 18.773333-5.12 23.893333-13.653333 5.12-8.533333 6.826667-18.773333 6.826667-30.72 0-17.066667-3.413333-29.013333-10.24-35.84-5.12-5.12-11.946667-6.826667-20.48-6.826667h-27.306667z" fill="#FFFFFF" p-id="4232"></path><path d="M160.426667 317.44l189.44-170.666667v97.28c34.133333 0 64.853333 5.12 90.453333 13.653334 27.306667 8.533333 51.2 23.893333 69.973333 42.666666 18.773333 20.48 34.133333 42.666667 44.373334 66.56 11.946667 25.6 20.48 56.32 29.013333 93.866667v3.413333c0 6.826667-3.413333 13.653333-11.946667 15.36-6.826667 1.706667-11.946667-1.706667-17.066666-6.826666-10.24-13.653333-35.84-29.013333-54.613334-40.96-5.12-3.413333-8.533333-5.12-11.946666-6.826667-17.066667-11.946667-35.84-18.773333-56.32-23.893333-11.946667-6.826667-15.36-8.533333-22.186667-8.533334h-10.24c-13.653333-1.706667-30.72-1.706667-47.786667-1.706666v95.573333L160.426667 317.44z m0 0" fill="#CCCCCC" p-id="4233"></path></svg>